PathFileType	4	(X/Y/Z)	./resultDataOpenSim/trcMotMarkerGrf/sub06/qtm-03-08.trc
DataRate	CameraRate	NumFrames	NumMarkers	Units	OrigDataRate	OrigDataStartFrame	OrigNumFrames
250.000000	250.000000	14	24	m	250.000000	65	512
Frame#	Time	L.Toe.Tip			R.Toe.Tip			L.Ankle.Lat			R.Ankle.Lat			L.Ankle.Med			R.Ankle.Med			L.Heel			R.Heel			L.Knee.Lat			R.Knee.Lat			L.Knee.Med			R.Knee.Med			L.Thigh.Upper			R.Thigh.Upper			L.ASIS			R.ASIS			V.Sacral			L.Acromium			R.Acromium			C7			L.Elbow			R.Elbow			L.Wrist.Lat			R.Wrist.Lat
		X1	Y1	Z1	X2	Y2	Z2	X3	Y3	Z3	X4	Y4	Z4	X5	Y5	Z5	X6	Y6	Z6	X7	Y7	Z7	X8	Y8	Z8	X9	Y9	Z9	X10	Y10	Z10	X11	Y11	Z11	X12	Y12	Z12	X13	Y13	Z13	X14	Y14	Z14	X15	Y15	Z15	X16	Y16	Z16	X17	Y17	Z17	X18	Y18	Z18	X19	Y19	Z19	X20	Y20	Z20	X21	Y21	Z21	X22	Y22	Z22	X23	Y23	Z23	X24	Y24	Z24

65	0.256	-1.3890288	0.079833588	-0.093420976	-0.80076808	0.035650716	0.12912718	-1.3792995	0.21091841	-0.12086493	-0.93522893	0.061661769	0.14767882	-1.3633418	0.21348484	-0.038767073	-0.91530193	0.079336216	0.061205934	-1.423874	0.2691968	-0.074059932	-0.99029398	0.038884219	0.085261369	-1.0387468	0.37524136	-0.13405455	-0.86635794	0.44182216	0.17263984	-1.0354134	0.3592664	-0.015365146	-0.8981873	0.42670574	0.049378011	-1.0592923	0.76800006	-0.12255449	-1.0178998	0.78696442	0.22029209	-0.97710677	0.81695228	-0.087608765	-0.93915074	0.83262682	0.15331645	-1.1439165	0.90581493	0.055384544	-1.0092337	1.3125128	-0.12694577	-1.008343	1.2869733	0.23491896	-1.0805233	1.3438207	0.056130658	-1.0413597	0.99244937	-0.19284287	-1.1263621	0.98960865	0.28037101	-0.85685022	0.82616391	-0.18593395	-1.0119067	0.77775395	0.3219159
66	0.26	-1.373016	0.08055868	-0.092364737	-0.80092218	0.03566687	0.12934331	-1.3657149	0.21155823	-0.11965924	-0.93561143	0.061574802	0.14782147	-1.3498372	0.21455689	-0.037623238	-0.91535024	0.0794993	0.061467553	-1.4113633	0.26928897	-0.07305546	-0.9903474	0.038977401	0.08533518	-1.0261559	0.37704832	-0.13356462	-0.864704	0.44176722	0.17335455	-1.0227477	0.36126013	-0.014699216	-0.8965069	0.42681652	0.049688514	-1.0529711	0.76973437	-0.1219131	-1.0146594	0.78801419	0.22047052	-0.97128888	0.81875898	-0.087228111	-0.9336203	0.83405431	0.15424464	-1.1380425	0.90775307	0.054144839	-1.0039164	1.3143271	-0.12667628	-1.0022541	1.2889761	0.23519802	-1.0746215	1.3455439	0.056417345	-1.0369863	0.99439832	-0.19218729	-1.11863	0.99113082	0.28130875	-0.85368706	0.82707639	-0.18607935	-1.0031842	0.77996323	0.32279397
67	0.264	-1.357055	0.081052846	-0.09096638	-0.80106713	0.035682822	0.12954784	-1.3518125	0.21197423	-0.11857229	-0.93598629	0.06149842	0.14796229	-1.3359414	0.21540672	-0.036562098	-0.9154018	0.079659718	0.061707848	-1.3986197	0.26908921	-0.072024625	-0.99039664	0.039087703	0.085412118	-1.0136826	0.37899686	-0.13301923	-0.86312607	0.4417141	0.17399353	-1.0101349	0.36334093	-0.013992031	-0.89481007	0.42699127	0.049918648	-1.046586	0.77150297	-0.12135738	-1.0103091	0.78923558	0.22101627	-0.96543567	0.8205865	-0.086826605	-0.92813935	0.83553993	0.15519658	-1.1319624	0.90963242	0.053621779	-0.99859563	1.3161798	-0.12641661	-0.99616988	1.2910244	0.23545188	-1.0687233	1.3473004	0.056689198	-1.0326763	0.99642402	-0.19161556	-1.1109179	0.99267725	0.28225541	-0.85065071	0.82802439	-0.18628264	-0.99426539	0.78229187	0.32361974
68	0.268	-1.3411155	0.081321856	-0.089388033	-0.80119948	0.035698402	0.12973105	-1.3376439	0.21217595	-0.11753201	-0.93635193	0.061439511	0.14809987	-1.3216951	0.21602795	-0.035572545	-0.91545629	0.07981176	0.06193199	-1.3856783	0.26864242	-0.070936392	-0.99043926	0.039209539	0.085485411	-1.0012823	0.38109188	-0.13241527	-0.86171789	0.44161816	0.174592	-0.99770259	0.36550663	-0.013179318	-0.89313676	0.42723177	0.050196589	-1.0401401	0.77332644	-0.12084874	-1.0048069	0.7906263	0.22189134	-0.95947867	0.82244564	-0.086366289	-0.92267781	0.83707402	0.1561661	-1.1259471	0.9114339	0.053747182	-0.99325818	1.3180598	-0.12616753	-0.99007348	1.2931125	0.23567833	-1.0628187	1.3490954	0.056957545	-1.0284079	0.99850954	-0.1911006	-1.1031404	0.99424662	0.28332493	-0.84764311	0.82901139	-0.18650961	-0.98514575	0.78474435	0.32438602
69	0.272	-1.3250703	0.081401525	-0.087873555	-0.80131576	0.035714006	0.12988702	-1.3233766	0.21216067	-0.11643407	-0.93668931	0.061402485	0.14822765	-1.3073231	0.21640952	-0.034584204	-0.91550815	0.079953068	0.062145618	-1.3726097	0.26796307	-0.06979881	-0.99047306	0.039331017	0.08555169	-0.98888316	0.38333566	-0.13175116	-0.86041207	0.44150996	0.17515702	-0.98550503	0.36774528	-0.012210786	-0.89152454	0.42751739	0.050536623	-1.0336664	0.77523935	-0.12039938	-0.99863836	0.79211881	0.2229068	-0.95343977	0.82433806	-0.08584746	-0.91716954	0.83865105	0.15714669	-1.1202179	0.91312988	0.054465663	-0.9878936	1.3199618	-0.12592793	-0.98395992	1.2952384	0.23587767	-1.0569037	1.3509276	0.057230954	-1.0241523	1.0006354	-0.19060751	-1.0952426	0.9958573	0.28457525	-0.84455965	0.83004088	-0.18672774	-0.97591112	0.78729757	0.32509149
70	0.276	-1.3087892	0.08132671	-0.086547122	-0.80141509	0.035729186	0.13001525	-1.3091625	0.21193021	-0.11525395	-0.93696908	0.061387381	0.148342	-1.2931362	0.21655382	-0.033499969	-0.91555027	0.080085454	0.062342569	-1.3594575	0.26702875	-0.068625392	-0.99050181	0.039442805	0.085614588	-0.97649193	0.38572455	-0.13103	-0.85910923	0.44144545	0.1756551	-0.97334062	0.37008045	-0.011138267	-0.88996638	0.42782681	0.050883926	-1.0271822	0.7772464	-0.1200042	-0.9925499	0.79362778	0.22382673	-0.94739751	0.82625863	-0.085300734	-0.91148189	0.84027668	0.15814554	-1.1147701	0.91473035	0.055650351	-0.98249735	1.3218884	-0.1256956	-0.97782816	1.2973922	0.23604738	-1.05098	1.352786	0.057513977	-1.0199088	1.0027993	-0.19012909	-1.0873299	0.99752064	0.28587241	-0.841367	0.83111137	-0.18693395	-0.96663813	0.78992716	0.32574035
71	0.28	-1.2922088	0.08111248	-0.085406906	-0.80150068	0.03574282	0.13011775	-1.2950486	0.21148499	-0.11402058	-0.93716203	0.061393994	0.148445	-1.2792757	0.21646698	-0.032283684	-0.91558465	0.080215443	0.062507202	-1.3462651	0.26583893	-0.067394918	-0.9905382	0.039536526	0.085687111	-0.96416998	0.38824603	-0.13026384	-0.85787221	0.44141372	0.17603255	-0.96097429	0.37257185	-0.010046648	-0.8884432	0.42814794	0.051192785	-1.0206798	0.77932181	-0.11963208	-0.98713798	0.79509923	0.22449345	-0.94134626	0.82821443	-0.084730046	-0.9054562	0.8419583	0.15918169	-1.1093755	0.91631045	0.056913707	-0.97706541	1.3238342	-0.1254712	-0.97166679	1.299556	0.23618168	-1.0450524	1.3546552	0.057806792	-1.0157365	1.0050212	-0.18971328	-1.0795663	0.99922898	0.28700443	-0.83814159	0.83221469	-0.18716135	-0.95735737	0.7926203	0.32633956
72	0.284	-1.2753273	0.080761329	-0.084400284	-0.80157771	0.03575379	0.13019627	-1.2809706	0.21082526	-0.11276283	-0.93725854	0.06142035	0.14853952	-1.2655393	0.21615715	-0.031001076	-0.9156235	0.080353515	0.062624907	-1.333065	0.2644132	-0.06610343	-0.99059852	0.039599523	0.085787762	-0.95193511	0.3908791	-0.12946208	-0.85682388	0.44136767	0.17626918	-0.94849785	0.37526748	-0.0089280516	-0.88698026	0.42846529	0.051458828	-1.0141466	0.7814371	-0.11925723	-0.98250497	0.79650636	0.2249244	-0.9351491	0.83022642	-0.084095022	-0.89906582	0.8436892	0.16026148	-1.1037328	0.91793715	0.057932609	-0.97159508	1.3257825	-0.12525511	-0.96545986	1.3017139	0.23627765	-1.0391243	1.3565217	0.05810786	-1.0117102	1.0073181	-0.18942413	-1.0719844	1.0009634	0.28789811	-0.83499359	0.83333669	-0.18745191	-0.94805224	0.79537054	0.3268928
73	0.288	-1.258151	0.080281544	-0.0834784	-0.80165038	0.035761019	0.13025317	-1.266803	0.20997151	-0.11151252	-0.93730489	0.061444148	0.14862043	-1.2515326	0.21565132	-0.029752286	-0.9156766	0.080508171	0.06269808	-1.3197847	0.26272128	-0.06484793	-0.99068997	0.039626865	0.085923216	-0.93976548	0.39360614	-0.1286217	-0.85590842	0.44131271	0.17642617	-0.93615775	0.37817312	-0.0077295466	-0.88563127	0.4287515	0.051709127	-1.0075787	0.78356819	-0.11887795	-0.97831602	0.79782224	0.22525331	-0.92870649	0.8322953	-0.083371798	-0.89261485	0.8454394	0.16134412	-1.0976281	0.91958115	0.058907283	-0.96609214	1.327723	-0.12504303	-0.95920762	1.3038617	0.23634202	-1.0331943	1.3583775	0.058415915	-1.0078284	1.0096676	-0.18925284	-1.0644871	1.0027052	0.28862674	-0.83193808	0.83446573	-0.18780926	-0.93867793	0.79817033	0.32739958
74	0.292	-1.2406729	0.079693081	-0.082609643	-0.80172168	0.035764563	0.13029391	-1.2524479	0.20895711	-0.11029571	-0.93743643	0.061401162	0.14866311	-1.237013	0.2149898	-0.028591981	-0.915741	0.080678378	0.062756639	-1.3063057	0.2607025	-0.063737804	-0.99080086	0.039641394	0.086069362	-0.92765234	0.39641799	-0.12773658	-0.85494537	0.44129732	0.17659615	-0.92394662	0.38124619	-0.0064809243	-0.88439105	0.42899387	0.051968093	-1.0009877	0.78569707	-0.11852944	-0.97412816	0.79905077	0.22557575	-0.92212363	0.83438375	-0.082604317	-0.88673469	0.84715908	0.16232828	-1.0910482	0.9211716	0.060265492	-0.96056752	1.3296543	-0.12482968	-0.95293049	1.3060082	0.23639081	-1.02726	1.3602198	0.058729941	-1.0039927	1.0120098	-0.18909386	-1.0569872	1.0044457	0.28928795	-0.82891153	0.83559858	-0.1882016	-0.92922484	0.80101014	0.32785991
75	0.296	-1.2228906	0.079020067	-0.081769786	-0.80179412	0.035767015	0.1303265	-1.2378887	0.20779497	-0.10910462	-0.9377906	0.061228632	0.1486395	-1.2220932	0.21419831	-0.027501593	-0.91580544	0.080855023	0.062839939	-1.2926851	0.25835794	-0.062662686	-0.99091026	0.039680172	0.086186761	-0.91560502	0.39930732	-0.12680939	-0.85386808	0.44134133	0.17680606	-0.91167094	0.3844287	-0.005268688	-0.88330048	0.42922235	0.052243838	-0.99439245	0.78782375	-0.11825426	-0.96962855	0.80025216	0.22588612	-0.91560755	0.83645147	-0.081863986	-0.88188022	0.84881139	0.16312348	-1.0842633	0.92271875	0.061968846	-0.9550269	1.3315706	-0.12461315	-0.9466502	1.3081627	0.23643567	-1.0213261	1.3620466	0.059047542	-1.0000953	1.014298	-0.18883349	-1.0494908	1.0061919	0.28995727	-0.82590491	0.83673604	-0.18861519	-0.91976401	0.80387707	0.32827421
76	0.3	-1.2048193	0.07828459	-0.080941846	-0.80186907	0.035772542	0.13035868	-1.2231663	0.20647853	-0.10790143	-0.93829624	0.060974294	0.14857114	-1.2070186	0.21328312	-0.026435009	-0.91586267	0.081029337	0.062963358	-1.2791073	0.2557416	-0.061389956	-0.99100893	0.039755452	0.086262677	-0.90363428	0.40226804	-0.12584857	-0.85274403	0.44142425	0.17702372	-0.89928008	0.38769706	-0.004124105	-0.88259431	0.42948748	0.052533358	-0.98779222	0.78996309	-0.11802823	-0.96477135	0.80148859	0.22609997	-0.90924161	0.83848966	-0.081177278	-0.87768446	0.85041827	0.16376492	-1.0776486	0.92429577	0.06354488	-0.94946907	1.3334627	-0.1243959	-0.94037604	1.310319	0.23647376	-1.0154035	1.3638522	0.059361439	-0.99611094	1.0165372	-0.18844749	-1.0420587	1.0079557	0.2906796	-0.82298506	0.83787589	-0.18906996	-0.91038676	0.80675962	0.32864223
77	0.304	-1.1864988	0.077503636	-0.080124889	-0.8019457	0.035783927	0.13039699	-1.2083282	0.20500553	-0.10665356	-0.93869432	0.060782433	0.14852871	-1.1919217	0.21222545	-0.025352794	-0.91591599	0.081197618	0.06310967	-1.2655965	0.25288146	-0.059925437	-0.99110249	0.039849459	0.086321157	-0.89173992	0.40529712	-0.12486187	-0.85163492	0.44152385	0.17722645	-0.88689825	0.3910594	-0.0030169566	-0.88234067	0.42980013	0.052786877	-0.98115034	0.79212423	-0.11776332	-0.95976971	0.8027773	0.22613075	-0.90296121	0.84051227	-0.080524425	-0.87324811	0.85204204	0.16438557	-1.0713377	0.92592301	0.064677957	-0.94389188	1.3353266	-0.12418399	-0.93411165	1.3124569	0.23649939	-1.0095026	1.3656257	0.059661805	-0.99207136	1.0187563	-0.18797666	-1.0347248	1.0097355	0.29144669	-0.8201938	0.83900909	-0.18958353	-0.90110762	0.80965858	0.3289689
78	0.308	-1.1679892	0.076689144	-0.07933041	-0.80202115	0.035800744	0.13044592	-1.1933968	0.20337734	-0.10535861	-0.93882472	0.060743209	0.14856094	-1.1769804	0.210958	-0.024168775	-0.91597019	0.081361312	0.063253122	-1.252013	0.24976774	-0.058471476	-0.99120006	0.039943164	0.086396547	-0.87991029	0.40838479	-0.12385268	-0.85056213	0.44162938	0.1774161	-0.8746537	0.39452541	-0.0019102506	-0.88218819	0.43010361	0.052917193	-0.97442006	0.79429721	-0.11741395	-0.95485495	0.80410816	0.22600883	-0.89668304	0.84253531	-0.079880678	-0.8681192	0.85370828	0.16506514	-1.0652133	0.92755916	0.065348701	-0.93829861	1.337159	-0.12398253	-0.92785811	1.3145595	0.23651586	-1.0036278	1.3673572	0.059946595	-0.98796898	1.0209569	-0.18742574	-1.0275006	1.0115102	0.29219492	-0.81750418	0.84012357	-0.19015014	-0.89186427	0.81258128	0.32926518
